<?xml version="1.0" standalone="no"?><!-- Generator: Gravit.io --><svg xmlns="http://www.w3.org/2000/svg" xmlns:xlink="http://www.w3.org/1999/xlink" style="isolation:isolate" viewBox="0 0 300 100" width="300" height="100"><defs><clipPath id="_clipPath_cMjMRHQwV94Awz2I2sAFn9tD3ZJYA2y0"><rect width="300" height="100"/></clipPath></defs><g clip-path="url(#_clipPath_cMjMRHQwV94Awz2I2sAFn9tD3ZJYA2y0)"><g><g><clipPath id="_clipPath_rjQecvobBn0DkJjKmztlbCXvfRwToWXW"><path d=" M 46.567 23.583 C 40.992 23.583 35.416 25.698 31.185 29.929 L 31.185 29.929 C 22.724 38.391 22.724 52.23 31.185 60.692 L 31.185 60.692 L 35.823 65.329 C 41.655 71.161 51.191 71.16 57.023 65.329 L 57.023 65.329 C 62.23 60.121 62.787 51.96 58.695 46.121 L 58.695 46.121 C 57.005 43.711 54.334 41.44 52.168 39.274 L 52.168 39.274 L 52.164 39.278 C 48.955 36.299 43.9 36.37 40.779 39.49 L 40.779 39.49 C 37.586 42.684 37.586 47.902 40.779 51.096 L 40.779 51.096 L 51.281 61.597 C 52.633 62.949 54.68 60.945 53.285 59.549 L 53.285 59.549 L 48.391 54.655 C 46.307 52.571 46.307 49.154 48.391 47.07 L 48.391 47.07 L 49.396 46.066 L 47.386 44.055 L 46.381 45.06 C 44.926 46.514 44.134 48.39 44.006 50.302 L 44.006 50.302 L 42.789 49.086 C 40.705 47.002 40.705 43.584 42.789 41.501 L 42.789 41.501 C 44.873 39.416 48.291 39.416 50.375 41.501 L 50.375 41.501 L 55.012 46.138 C 59.735 50.861 59.735 58.596 55.012 63.319 L 55.012 63.319 C 50.29 68.041 42.555 68.041 37.832 63.319 L 37.832 63.319 L 33.196 58.681 C 25.843 51.329 25.843 39.291 33.196 31.938 L 33.196 31.938 C 40.548 24.586 52.586 24.586 59.939 31.938 L 59.939 31.938 C 61.528 33.528 63.538 31.518 61.949 29.929 L 61.949 29.929 C 57.718 25.698 52.144 23.583 46.569 23.583 L 46.569 23.583 C 46.568 23.583 46.568 23.583 46.567 23.583 Z  M 36.043 34.755 C 31.139 39.655 30.388 47.14 33.718 52.916 L 33.718 52.916 C 34.553 54.363 34.956 54.868 36.075 55.986 L 36.075 55.986 L 40.822 60.734 C 42.198 62.109 44.22 60.112 42.82 58.712 L 42.82 58.712 L 38.053 53.944 C 33.33 49.221 33.33 41.486 38.053 36.764 L 38.053 36.764 C 42.775 32.042 50.51 32.041 55.232 36.763 L 55.232 36.763 L 59.786 41.318 C 67.139 48.67 67.139 60.708 59.786 68.061 L 59.786 68.061 C 52.434 75.413 40.395 75.413 33.043 68.061 L 33.043 68.061 C 31.454 66.471 29.444 68.481 31.033 70.07 L 31.033 70.07 C 39.495 78.532 53.334 78.533 61.796 70.07 L 61.796 70.07 C 70.258 61.609 70.258 47.769 61.796 39.308 L 61.796 39.308 L 57.308 34.82 L 57.243 34.755 C 54.326 31.838 50.485 30.38 46.643 30.38 L 46.643 30.38 C 42.801 30.38 38.959 31.839 36.043 34.755" fill="rgb(255,255,255)"/></clipPath><g clip-path="url(#_clipPath_rjQecvobBn0DkJjKmztlbCXvfRwToWXW)"><g><g><g><linearGradient id="_lgradient_0" x1="0.7941065745172224" y1="0.13580726290214096" x2="0.24118333987755847" y2="0.972428793390838" gradientTransform="matrix(43.303,0,0,-52.834,24.839,76.417)" gradientUnits="userSpaceOnUse"><stop offset="0%" stop-opacity="1" style="stop-color:rgb(254,73,16)"/><stop offset="99.92305900000001%" stop-opacity="1" style="stop-color:rgb(253,184,25)"/><stop offset="100%" stop-opacity="1" style="stop-color:rgb(253,184,25)"/></linearGradient><path d=" M 46.567 23.583 C 40.992 23.583 35.416 25.698 31.185 29.929 L 31.185 29.929 C 22.724 38.391 22.724 52.23 31.185 60.692 L 31.185 60.692 L 35.823 65.329 C 41.655 71.161 51.191 71.16 57.023 65.329 L 57.023 65.329 C 62.23 60.121 62.787 51.96 58.695 46.121 L 58.695 46.121 C 57.005 43.711 54.334 41.44 52.168 39.274 L 52.168 39.274 L 52.164 39.278 C 48.955 36.299 43.9 36.37 40.779 39.49 L 40.779 39.49 C 37.586 42.684 37.586 47.902 40.779 51.096 L 40.779 51.096 L 51.281 61.597 C 52.633 62.949 54.68 60.945 53.285 59.549 L 53.285 59.549 L 48.391 54.655 C 46.307 52.571 46.307 49.154 48.391 47.07 L 48.391 47.07 L 49.396 46.066 L 47.386 44.055 L 46.381 45.06 C 44.926 46.514 44.134 48.39 44.006 50.302 L 44.006 50.302 L 42.789 49.086 C 40.705 47.002 40.705 43.584 42.789 41.501 L 42.789 41.501 C 44.873 39.416 48.291 39.416 50.375 41.501 L 50.375 41.501 L 55.012 46.138 C 59.735 50.861 59.735 58.596 55.012 63.319 L 55.012 63.319 C 50.29 68.041 42.555 68.041 37.832 63.319 L 37.832 63.319 L 33.196 58.681 C 25.843 51.329 25.843 39.291 33.196 31.938 L 33.196 31.938 C 40.548 24.586 52.586 24.586 59.939 31.938 L 59.939 31.938 C 61.528 33.528 63.538 31.518 61.949 29.929 L 61.949 29.929 C 57.718 25.698 52.144 23.583 46.569 23.583 L 46.569 23.583 C 46.568 23.583 46.568 23.583 46.567 23.583 Z  M 36.043 34.755 C 31.139 39.655 30.388 47.14 33.718 52.916 L 33.718 52.916 C 34.553 54.363 34.956 54.868 36.075 55.986 L 36.075 55.986 L 40.822 60.734 C 42.198 62.109 44.22 60.112 42.82 58.712 L 42.82 58.712 L 38.053 53.944 C 33.33 49.221 33.33 41.486 38.053 36.764 L 38.053 36.764 C 42.775 32.042 50.51 32.041 55.232 36.763 L 55.232 36.763 L 59.786 41.318 C 67.139 48.67 67.139 60.708 59.786 68.061 L 59.786 68.061 C 52.434 75.413 40.395 75.413 33.043 68.061 L 33.043 68.061 C 31.454 66.471 29.444 68.481 31.033 70.07 L 31.033 70.07 C 39.495 78.532 53.334 78.533 61.796 70.07 L 61.796 70.07 C 70.258 61.609 70.258 47.769 61.796 39.308 L 61.796 39.308 L 57.308 34.82 L 57.243 34.755 C 54.326 31.838 50.485 30.38 46.643 30.38 L 46.643 30.38 C 42.801 30.38 38.959 31.839 36.043 34.755" fill="url(#_lgradient_0)"/></g></g></g></g></g><g><clipPath id="_clipPath_rS33duk1tmXn2s9RnPQgIOZBfQ9C447w"><path d=" M -41.444 -79.875 L 342.625 -79.875 L 342.625 178.692 L -41.444 178.692 L -41.444 -79.875 Z " fill="rgb(255,255,255)"/></clipPath><g clip-path="url(#_clipPath_rS33duk1tmXn2s9RnPQgIOZBfQ9C447w)"><g><path d=" M 95.777 51.576 L 84.68 51.576 L 84.68 47.845 L 95.777 47.845 L 95.777 51.576 Z  M 96.66 42.89 L 83.257 42.89 L 83.257 60.575 L 79.871 60.575 L 79.871 39.159 L 96.66 39.159 L 96.66 42.89 Z  M 124.205 49.632 C 124.205 52.788 123.285 55.401 121.445 57.471 C 119.605 59.54 117.262 60.575 114.416 60.575 L 108.981 60.575 C 106.154 60.575 103.816 59.54 101.967 57.471 C 100.117 55.401 99.192 52.788 99.192 49.632 C 99.192 46.496 100.107 43.967 101.939 42.044 C 103.769 40.121 106.117 39.159 108.981 39.159 L 114.416 39.159 C 117.3 39.159 119.652 40.121 121.473 42.044 C 123.295 43.967 124.205 46.496 124.205 49.632 M 120.847 49.945 C 120.847 47.875 120.244 46.183 119.04 44.866 C 117.835 43.548 116.294 42.89 114.416 42.89 L 108.981 42.89 C 107.122 42.89 105.59 43.548 104.385 44.866 C 103.181 46.183 102.578 47.875 102.578 49.945 C 102.578 51.994 103.181 53.655 104.385 54.931 C 105.59 56.206 107.122 56.843 108.981 56.843 L 114.416 56.843 C 116.294 56.843 117.835 56.206 119.04 54.931 C 120.244 53.655 120.847 51.994 120.847 49.945 Z  M 148.819 50.949 C 148.819 54.398 147.88 56.916 146.001 58.505 C 144.351 59.885 141.904 60.575 138.66 60.575 L 137.493 60.575 C 134.249 60.575 131.803 59.885 130.152 58.505 C 128.274 56.916 127.335 54.398 127.335 50.949 L 127.335 39.159 L 130.721 39.159 L 130.721 50.949 C 130.721 53.52 131.527 55.223 133.14 56.06 C 134.183 56.582 136.023 56.843 138.66 56.843 C 140.861 56.843 142.473 56.477 143.497 55.746 C 144.788 54.826 145.432 53.227 145.432 50.949 L 145.432 39.159 L 148.819 39.159 L 148.819 50.949 Z  M 172.322 58.725 C 172.322 60.104 171.896 60.794 171.042 60.794 C 170.416 60.794 169.714 60.365 168.937 59.509 L 156.473 45.712 L 156.473 60.575 L 153.115 60.575 L 153.115 41.009 C 153.115 40.507 153.238 40.074 153.485 39.708 C 153.732 39.342 154.083 39.159 154.538 39.159 C 155.164 39.159 155.809 39.525 156.473 40.256 L 168.937 54.021 L 168.937 39.159 L 172.322 39.159 L 172.322 58.725 Z  M 198.388 49.632 C 198.388 52.788 197.468 55.401 195.628 57.471 C 193.787 59.54 191.445 60.575 188.599 60.575 L 177.644 60.575 L 177.644 39.159 L 188.599 39.159 C 191.464 39.159 193.811 40.121 195.642 42.044 C 197.472 43.967 198.388 46.496 198.388 49.632 Z  M 195.001 49.945 C 195.001 47.875 194.4 46.183 193.195 44.866 C 191.99 43.548 190.458 42.89 188.599 42.89 L 181.002 42.89 L 181.002 56.843 L 188.599 56.843 C 190.458 56.843 191.99 56.206 193.195 54.931 C 194.4 53.655 195.001 51.994 195.001 49.945 Z  M 226.132 60.575 L 221.779 60.543 L 218.506 54.554 L 209.286 54.554 L 211.335 50.854 L 216.486 50.854 L 213.099 44.678 L 204.335 60.543 L 199.981 60.543 L 210.538 41.197 C 210.804 40.696 211.174 40.235 211.648 39.818 C 212.218 39.337 212.729 39.096 213.185 39.096 C 213.678 39.096 214.19 39.327 214.721 39.786 C 215.177 40.183 215.547 40.654 215.831 41.197 L 226.132 60.575 Z  M 250.546 60.575 L 245.538 60.575 L 240.103 54.554 L 232.79 54.554 L 232.79 50.854 L 241.896 50.854 C 243.148 50.854 244.201 50.552 245.054 49.945 C 246.022 49.234 246.506 48.221 246.506 46.903 C 246.506 44.229 244.969 42.89 241.896 42.89 L 230.798 42.89 L 230.798 60.575 L 227.413 60.575 L 227.413 39.159 L 241.355 39.159 C 243.86 39.159 245.88 39.755 247.417 40.946 C 249.18 42.305 250.063 44.301 250.063 46.935 C 250.063 48.733 249.55 50.28 248.526 51.576 C 247.578 52.788 246.287 53.635 244.656 54.116 L 250.546 60.575 Z  M 275.161 49.632 C 275.161 52.788 274.241 55.401 272.4 57.471 C 270.56 59.54 268.217 60.575 265.372 60.575 L 254.417 60.575 L 254.417 39.159 L 265.372 39.159 C 268.236 39.159 270.584 40.121 272.414 42.044 C 274.245 43.967 275.161 46.496 275.161 49.632 Z  M 271.774 49.945 C 271.774 47.875 271.172 46.183 269.967 44.866 C 268.763 43.548 267.23 42.89 265.372 42.89 L 257.774 42.89 L 257.774 56.843 L 265.372 56.843 C 267.23 56.843 268.763 56.206 269.967 54.931 C 271.172 53.655 271.774 51.994 271.774 49.945 Z " fill="rgb(0,0,0)"/></g></g></g></g></g></svg>