<svg width="280" height="55" viewBox="0 0 280 55" fill="none" xmlns="http://www.w3.org/2000/svg">
<path d="M92.1531 15.2157C93.1736 15.2157 94.0906 15.4376 94.9041 15.8813C95.7176 16.325 96.3535 16.9758 96.812 17.8336C97.2705 18.6767 97.4998 19.6972 97.4998 20.8952V26.3529C97.4998 26.6783 97.3889 26.9519 97.167 27.1737C96.9599 27.3808 96.6937 27.4843 96.3683 27.4843C96.0429 27.4843 95.7693 27.3808 95.5475 27.1737C95.3404 26.9519 95.2369 26.6783 95.2369 26.3529V20.8952C95.2369 19.6972 94.9115 18.795 94.2607 18.1886C93.6247 17.5674 92.7743 17.2568 91.7094 17.2568C91.0882 17.2568 90.5187 17.3825 90.0011 17.634C89.4982 17.8854 89.0989 18.2256 88.8031 18.6545C88.5221 19.0834 88.3815 19.5641 88.3815 20.0966V26.3529C88.3815 26.6783 88.278 26.9519 88.0709 27.1737C87.8639 27.3808 87.5903 27.4843 87.2501 27.4843C86.9247 27.4843 86.6511 27.3808 86.4292 27.1737C86.2222 26.9519 86.1186 26.6783 86.1186 26.3529V16.4581C86.1186 16.1179 86.2222 15.8443 86.4292 15.6373C86.6511 15.4302 86.9247 15.3267 87.2501 15.3267C87.5903 15.3267 87.8639 15.4302 88.0709 15.6373C88.278 15.8443 88.3815 16.1179 88.3815 16.4581V16.7022C88.8548 16.2289 89.4169 15.8665 90.0676 15.6151C90.7184 15.3489 91.4136 15.2157 92.1531 15.2157Z" fill="#25265E"/>
<path d="M107.631 15.2379C108.799 15.2379 109.842 15.5041 110.759 16.0366C111.691 16.5543 112.415 17.279 112.933 18.2108C113.465 19.1426 113.732 20.2075 113.732 21.4055V26.1976C113.732 27.366 113.473 28.4309 112.955 29.3923C112.437 30.3537 111.705 31.108 110.759 31.6552C109.827 32.2172 108.769 32.4983 107.586 32.4983C106.521 32.4983 105.53 32.2838 104.613 31.8549C103.696 31.4407 102.927 30.8417 102.306 30.0578C102.143 29.8508 102.062 29.6437 102.062 29.4367C102.062 29.1261 102.217 28.8598 102.528 28.638C102.735 28.5049 102.942 28.4383 103.149 28.4383C103.519 28.4383 103.822 28.5936 104.059 28.9042C104.458 29.4219 104.961 29.8138 105.567 30.08C106.174 30.3611 106.861 30.5016 107.631 30.5016C108.355 30.5016 109.013 30.3241 109.605 29.9691C110.197 29.6289 110.67 29.1187 111.025 28.4383C111.38 27.7727 111.557 26.9741 111.557 26.0423V24.9552C111.099 25.7686 110.493 26.4046 109.738 26.8631C108.984 27.3216 108.133 27.5509 107.187 27.5509C106.092 27.5509 105.109 27.2921 104.236 26.7744C103.378 26.2419 102.705 25.5098 102.217 24.578C101.744 23.6462 101.507 22.5887 101.507 21.4055C101.507 20.2075 101.766 19.1426 102.284 18.2108C102.802 17.279 103.526 16.5543 104.458 16.0366C105.39 15.5041 106.447 15.2379 107.631 15.2379ZM107.631 25.5542C108.385 25.5542 109.058 25.3767 109.649 25.0217C110.256 24.6668 110.722 24.1787 111.047 23.5575C111.387 22.9215 111.557 22.2042 111.557 21.4055C111.557 20.6068 111.387 19.8895 111.047 19.2535C110.722 18.6175 110.256 18.122 109.649 17.7671C109.058 17.4121 108.385 17.2346 107.631 17.2346C106.876 17.2346 106.196 17.4121 105.59 17.7671C104.998 18.122 104.532 18.6175 104.192 19.2535C103.852 19.8895 103.682 20.6068 103.682 21.4055C103.682 22.2042 103.852 22.9215 104.192 23.5575C104.532 24.1787 104.998 24.6668 105.59 25.0217C106.196 25.3767 106.876 25.5542 107.631 25.5542Z" fill="#25265E"/>
<path d="M128.88 21.2058C128.88 21.4868 128.784 21.7235 128.592 21.9158C128.399 22.0932 128.155 22.182 127.859 22.182H119.429C119.592 23.2173 120.058 24.053 120.827 24.689C121.611 25.3249 122.565 25.6429 123.689 25.6429C124.132 25.6429 124.591 25.5616 125.064 25.3989C125.552 25.2362 125.952 25.0365 126.262 24.7999C126.469 24.6372 126.713 24.5558 126.994 24.5558C127.275 24.5558 127.497 24.6298 127.66 24.7777C127.926 24.9996 128.059 25.251 128.059 25.532C128.059 25.7982 127.941 26.0201 127.704 26.1976C127.201 26.5969 126.573 26.9223 125.818 27.1737C125.079 27.4252 124.369 27.5509 123.689 27.5509C122.476 27.5509 121.389 27.2921 120.427 26.7744C119.466 26.2419 118.712 25.5098 118.164 24.578C117.632 23.6462 117.366 22.5887 117.366 21.4055C117.366 20.2223 117.617 19.1648 118.12 18.233C118.638 17.2864 119.348 16.5543 120.25 16.0366C121.167 15.5041 122.202 15.2379 123.356 15.2379C124.495 15.2379 125.478 15.4894 126.306 15.9922C127.135 16.4951 127.771 17.1976 128.214 18.0999C128.658 19.0021 128.88 20.0374 128.88 21.2058ZM123.356 17.1459C122.276 17.1459 121.396 17.4417 120.716 18.0333C120.05 18.6249 119.629 19.4162 119.451 20.4071H126.839C126.706 19.4162 126.336 18.6249 125.73 18.0333C125.123 17.4417 124.332 17.1459 123.356 17.1459Z" fill="#25265E"/>
<path d="M132.21 11.2445C132.21 10.9191 132.313 10.6529 132.52 10.4459C132.728 10.2388 132.994 10.1353 133.319 10.1353C133.645 10.1353 133.911 10.2388 134.118 10.4459C134.325 10.6529 134.428 10.9191 134.428 11.2445V23.3578C134.428 23.9051 134.532 24.3562 134.739 24.7111C134.946 25.0661 135.212 25.2436 135.538 25.2436H136.092C136.388 25.2436 136.625 25.3471 136.802 25.5542C136.995 25.7613 137.091 26.0275 137.091 26.3529C137.091 26.6783 136.95 26.9445 136.669 27.1515C136.388 27.3586 136.026 27.4621 135.582 27.4621H135.538C134.902 27.4621 134.325 27.2921 133.807 26.9519C133.304 26.5969 132.912 26.1088 132.631 25.4876C132.35 24.8516 132.21 24.1417 132.21 23.3578V11.2445Z" fill="#25265E"/>
<path d="M145.023 15.2379C146.162 15.2379 147.19 15.5115 148.107 16.0588C149.038 16.5912 149.77 17.3308 150.303 18.2773C150.85 19.2091 151.124 20.2519 151.124 21.4055V26.3529C151.124 26.6783 151.013 26.9519 150.791 27.1737C150.584 27.3808 150.318 27.4843 149.992 27.4843C149.667 27.4843 149.393 27.3808 149.171 27.1737C148.964 26.9519 148.861 26.6783 148.861 26.3529V25.532C148.343 26.168 147.715 26.6635 146.975 27.0184C146.236 27.3734 145.437 27.5509 144.579 27.5509C143.514 27.5509 142.545 27.2847 141.673 26.7522C140.815 26.2198 140.135 25.4876 139.632 24.5558C139.144 23.6093 138.9 22.5591 138.9 21.4055C138.9 20.2519 139.166 19.2091 139.698 18.2773C140.231 17.3308 140.963 16.5912 141.895 16.0588C142.841 15.5115 143.884 15.2379 145.023 15.2379ZM145.023 25.5542C145.762 25.5542 146.428 25.3767 147.019 25.0217C147.626 24.652 148.099 24.1565 148.439 23.5353C148.779 22.8993 148.95 22.1894 148.95 21.4055C148.95 20.6216 148.779 19.9117 148.439 19.2757C148.099 18.6397 147.626 18.1442 147.019 17.7893C146.428 17.4195 145.762 17.2346 145.023 17.2346C144.283 17.2346 143.61 17.4195 143.004 17.7893C142.412 18.1442 141.939 18.6397 141.584 19.2757C141.244 19.9117 141.074 20.6216 141.074 21.4055C141.074 22.1894 141.244 22.8993 141.584 23.5353C141.939 24.1565 142.412 24.652 143.004 25.0217C143.61 25.3767 144.283 25.5542 145.023 25.5542Z" fill="#25265E"/>
<path d="M200.263 16.1743C201.402 16.1743 202.43 16.4479 203.347 16.9952C204.279 17.5276 205.011 18.2672 205.543 19.2137C206.09 20.1455 206.364 21.1883 206.364 22.3419V27.2893C206.364 27.6147 206.253 27.8883 206.031 28.1101C205.824 28.3172 205.558 28.4207 205.233 28.4207C204.907 28.4207 204.634 28.3172 204.412 28.1101C204.205 27.8883 204.101 27.6147 204.101 27.2893V26.4684C203.583 27.1044 202.955 27.5999 202.215 27.9548C201.476 28.3098 200.677 28.4873 199.819 28.4873C198.754 28.4873 197.786 28.2211 196.913 27.6886C196.055 27.1562 195.375 26.424 194.872 25.4922C194.384 24.5457 194.14 23.4955 194.14 22.3419C194.14 21.1883 194.406 20.1455 194.938 19.2137C195.471 18.2672 196.203 17.5276 197.135 16.9952C198.081 16.4479 199.124 16.1743 200.263 16.1743ZM200.263 26.4906C201.003 26.4906 201.668 26.3131 202.26 25.9581C202.866 25.5884 203.339 25.0929 203.68 24.4717C204.02 23.8357 204.19 23.1258 204.19 22.3419C204.19 21.558 204.02 20.8481 203.68 20.2121C203.339 19.5761 202.866 19.0806 202.26 18.7257C201.668 18.3559 201.003 18.171 200.263 18.171C199.523 18.171 198.851 18.3559 198.244 18.7257C197.652 19.0806 197.179 19.5761 196.824 20.2121C196.484 20.8481 196.314 21.558 196.314 22.3419C196.314 23.1258 196.484 23.8357 196.824 24.4717C197.179 25.0929 197.652 25.5884 198.244 25.9581C198.851 26.3131 199.523 26.4906 200.263 26.4906Z" fill="#25265E"/>
<path d="M216.565 16.13C217.349 16.13 217.963 16.2483 218.406 16.4849C218.85 16.7216 219.072 17.0174 219.072 17.3723C219.072 17.4759 219.065 17.5498 219.05 17.5942C218.917 18.0675 218.621 18.3041 218.162 18.3041C218.088 18.3041 217.977 18.2893 217.83 18.2598C217.238 18.1562 216.757 18.1045 216.388 18.1045C215.323 18.1045 214.465 18.3485 213.814 18.8366C213.163 19.3247 212.838 19.9828 212.838 20.8111V27.2893C212.838 27.6442 212.742 27.9179 212.549 28.1101C212.372 28.3024 212.098 28.3985 211.729 28.3985C211.374 28.3985 211.1 28.3098 210.908 28.1323C210.715 27.94 210.619 27.659 210.619 27.2893V17.3723C210.619 17.0174 210.715 16.7438 210.908 16.5515C211.1 16.3592 211.374 16.2631 211.729 16.2631C212.468 16.2631 212.838 16.6328 212.838 17.3723V17.7939C213.282 17.2762 213.829 16.8695 214.48 16.5737C215.13 16.2779 215.825 16.13 216.565 16.13Z" fill="#25265E"/>
<path d="M226.91 16.1743C228.078 16.1743 229.121 16.4405 230.038 16.973C230.97 17.4907 231.695 18.2154 232.212 19.1472C232.745 20.079 233.011 21.1439 233.011 22.3419C233.011 23.5251 232.752 24.5826 232.234 25.5144C231.717 26.4462 230.992 27.1783 230.06 27.7108C229.143 28.2285 228.093 28.4873 226.91 28.4873C225.727 28.4873 224.669 28.2285 223.737 27.7108C222.806 27.1783 222.081 26.4462 221.563 25.5144C221.046 24.5826 220.787 23.5251 220.787 22.3419C220.787 21.1439 221.046 20.079 221.563 19.1472C222.081 18.2154 222.806 17.4907 223.737 16.973C224.669 16.4405 225.727 16.1743 226.91 16.1743ZM226.91 18.171C226.156 18.171 225.475 18.3485 224.869 18.7035C224.277 19.0584 223.811 19.5539 223.471 20.1899C223.131 20.8259 222.961 21.5432 222.961 22.3419C222.961 23.1406 223.131 23.8579 223.471 24.4939C223.811 25.1151 224.277 25.6032 224.869 25.9581C225.475 26.3131 226.156 26.4906 226.91 26.4906C227.664 26.4906 228.337 26.3131 228.929 25.9581C229.535 25.6032 230.001 25.1151 230.326 24.4939C230.667 23.8579 230.837 23.1406 230.837 22.3419C230.837 21.5432 230.667 20.8259 230.326 20.1899C230.001 19.5539 229.535 19.0584 228.929 18.7035C228.337 18.3485 227.664 18.171 226.91 18.171Z" fill="#25265E"/>
<path d="M236.822 12.1809C236.822 11.8555 236.926 11.5893 237.133 11.3823C237.34 11.1752 237.606 11.0717 237.932 11.0717C238.257 11.0717 238.523 11.1752 238.73 11.3823C238.937 11.5893 239.041 11.8555 239.041 12.1809V24.2942C239.041 24.8415 239.145 25.2926 239.352 25.6475C239.559 26.0025 239.825 26.18 240.15 26.18H240.705C241.001 26.18 241.237 26.2835 241.415 26.4906C241.607 26.6977 241.703 26.9639 241.703 27.2893C241.703 27.6147 241.563 27.8809 241.282 28.0879C241.001 28.295 240.638 28.3985 240.195 28.3985H240.15C239.514 28.3985 238.937 28.2285 238.42 27.8883C237.917 27.5333 237.525 27.0452 237.244 26.424C236.963 25.788 236.822 25.0781 236.822 24.2942V12.1809Z" fill="#25265E"/>
<path d="M245.027 17.3945C245.027 17.0543 245.13 16.7807 245.337 16.5737C245.559 16.3666 245.833 16.2631 246.158 16.2631C246.498 16.2631 246.772 16.3666 246.979 16.5737C247.186 16.7807 247.29 17.0543 247.29 17.3945V27.2671C247.29 27.5925 247.186 27.8661 246.979 28.0879C246.772 28.295 246.498 28.3985 246.158 28.3985C245.833 28.3985 245.559 28.295 245.337 28.0879C245.13 27.8661 245.027 27.5925 245.027 27.2671V17.3945ZM246.158 11.3601C246.558 11.3601 246.898 11.508 247.179 11.8038C247.475 12.0848 247.622 12.425 247.622 12.8243C247.622 13.2237 247.475 13.5712 247.179 13.867C246.898 14.148 246.558 14.2886 246.158 14.2886C245.759 14.2886 245.411 14.148 245.116 13.867C244.835 13.5712 244.694 13.2237 244.694 12.8243C244.694 12.425 244.835 12.0848 245.116 11.8038C245.411 11.508 245.759 11.3601 246.158 11.3601Z" fill="#25265E"/>
<path d="M258.421 16.1521C259.442 16.1521 260.359 16.374 261.172 16.8177C261.986 17.2614 262.622 17.9122 263.08 18.77C263.539 19.6131 263.768 20.6336 263.768 21.8316V27.2893C263.768 27.6147 263.657 27.8883 263.435 28.1101C263.228 28.3172 262.962 28.4207 262.637 28.4207C262.311 28.4207 262.038 28.3172 261.816 28.1101C261.609 27.8883 261.505 27.6147 261.505 27.2893V21.8316C261.505 20.6336 261.18 19.7314 260.529 19.125C259.893 18.5038 259.043 18.1932 257.978 18.1932C257.357 18.1932 256.787 18.3189 256.269 18.5704C255.767 18.8218 255.367 19.162 255.071 19.5909C254.79 20.0198 254.65 20.5005 254.65 21.033V27.2893C254.65 27.6147 254.546 27.8883 254.339 28.1101C254.132 28.3172 253.859 28.4207 253.518 28.4207C253.193 28.4207 252.919 28.3172 252.698 28.1101C252.491 27.8883 252.387 27.6147 252.387 27.2893V17.3945C252.387 17.0543 252.491 16.7807 252.698 16.5737C252.919 16.3666 253.193 16.2631 253.518 16.2631C253.859 16.2631 254.132 16.3666 254.339 16.5737C254.546 16.7807 254.65 17.0543 254.65 17.3945V17.6386C255.123 17.1653 255.685 16.8029 256.336 16.5515C256.987 16.2853 257.682 16.1521 258.421 16.1521Z" fill="#25265E"/>
<path d="M273.899 16.1743C275.038 16.1743 276.066 16.4479 276.983 16.9952C277.915 17.5276 278.647 18.2672 279.179 19.2137C279.726 20.1455 280 21.1883 280 22.3419V27.2893C280 27.6147 279.889 27.8883 279.667 28.1101C279.46 28.3172 279.194 28.4207 278.869 28.4207C278.543 28.4207 278.27 28.3172 278.048 28.1101C277.841 27.8883 277.737 27.6147 277.737 27.2893V26.4684C277.219 27.1044 276.591 27.5999 275.851 27.9548C275.112 28.3098 274.313 28.4873 273.455 28.4873C272.39 28.4873 271.422 28.2211 270.549 27.6886C269.691 27.1562 269.011 26.424 268.508 25.4922C268.02 24.5457 267.776 23.4955 267.776 22.3419C267.776 21.1883 268.042 20.1455 268.574 19.2137C269.107 18.2672 269.839 17.5276 270.771 16.9952C271.717 16.4479 272.76 16.1743 273.899 16.1743ZM273.899 26.4906C274.638 26.4906 275.304 26.3131 275.896 25.9581C276.502 25.5884 276.975 25.0929 277.316 24.4717C277.656 23.8357 277.826 23.1258 277.826 22.3419C277.826 21.558 277.656 20.8481 277.316 20.2121C276.975 19.5761 276.502 19.0806 275.896 18.7257C275.304 18.3559 274.638 18.171 273.899 18.171C273.159 18.171 272.486 18.3559 271.88 18.7257C271.288 19.0806 270.815 19.5761 270.46 20.2121C270.12 20.8481 269.95 21.558 269.95 22.3419C269.95 23.1258 270.12 23.8357 270.46 24.4717C270.815 25.0929 271.288 25.5884 271.88 25.9581C272.486 26.3131 273.159 26.4906 273.899 26.4906Z" fill="#25265E"/>
<path d="M83.1262 30.5206C83.2248 30.777 83.2741 30.9939 83.2741 31.1714C83.2741 31.5855 83.1262 31.9405 82.8303 32.2363C82.5345 32.5321 82.1697 32.68 81.7359 32.68C81.4401 32.68 81.1541 32.6012 80.878 32.4434C80.6217 32.2659 80.4343 32.0293 80.316 31.7335L78.6595 27.5922H68.04L66.3539 31.7335C66.2159 32.0293 66.0187 32.2659 65.7623 32.4434C65.5059 32.6012 65.2298 32.68 64.934 32.68C64.5002 32.68 64.1354 32.5321 63.8395 32.2363C63.5635 31.9208 63.4254 31.556 63.4254 31.1418C63.4254 30.9446 63.4747 30.7178 63.5733 30.4615L71.8855 10.6128C72.1813 9.92262 72.6644 9.57751 73.3349 9.57751C74.0449 9.57751 74.528 9.92262 74.7844 10.6128L83.1262 30.5206ZM77.6241 25.0482L73.3941 14.5175L69.0753 25.0482H77.6241Z" fill="#25265E"/>
<path d="M183.598 9.28174C185.097 9.28174 186.388 9.47894 187.473 9.87335C188.577 10.2678 189.691 10.9185 190.816 11.8257C191.052 12.0032 191.21 12.1905 191.289 12.3877C191.368 12.5652 191.407 12.7821 191.407 13.0385C191.407 13.4329 191.259 13.7583 190.963 14.0146C190.687 14.271 190.362 14.3992 189.987 14.3992C189.613 14.3992 189.267 14.271 188.952 14.0146C188.143 13.3244 187.355 12.8314 186.586 12.5356C185.816 12.2201 184.821 12.0623 183.598 12.0623C182.06 12.0623 180.64 12.4666 179.338 13.2751C178.056 14.0837 177.031 15.188 176.262 16.5882C175.512 17.9686 175.138 19.4772 175.138 21.114C175.138 22.7705 175.512 24.289 176.262 25.6694C177.031 27.0499 178.056 28.1444 179.338 28.9529C180.64 29.7614 182.06 30.1657 183.598 30.1657C185.491 30.1657 187.305 29.5149 189.041 28.2134C189.376 27.9767 189.701 27.8584 190.017 27.8584C190.392 27.8584 190.697 27.9965 190.934 28.2725C191.19 28.5289 191.318 28.874 191.318 29.3079C191.318 29.722 191.161 30.0868 190.845 30.4024C188.715 32.118 186.3 32.9759 183.598 32.9759C181.488 32.9759 179.555 32.4533 177.8 31.4081C176.065 30.3629 174.694 28.9332 173.688 27.1189C172.683 25.3046 172.18 23.303 172.18 21.114C172.18 18.9448 172.683 16.9629 173.688 15.1683C174.694 13.354 176.065 11.9243 177.8 10.8791C179.555 9.81419 181.488 9.28174 183.598 9.28174Z" fill="#25265E"/>
<path d="M66.0153 45.4468C65.5617 45.4468 65.1601 45.3641 64.8105 45.1987C64.4609 45.0286 64.1868 44.7948 63.9884 44.4971C63.7947 44.1995 63.6978 43.8593 63.6978 43.4766V40.1669C63.6978 40.0583 63.7333 39.9709 63.8041 39.9047C63.875 39.8338 63.9624 39.7984 64.0663 39.7984C64.175 39.7984 64.2624 39.8338 64.3286 39.9047C64.3994 39.9709 64.4349 40.0583 64.4349 40.1669V43.4766C64.4349 43.7317 64.501 43.9585 64.6333 44.1569C64.7703 44.3507 64.9569 44.5042 65.1932 44.6176C65.4341 44.7263 65.7082 44.7806 66.0153 44.7806C66.3129 44.7806 66.5752 44.7263 66.8019 44.6176C67.0335 44.5042 67.213 44.3507 67.3406 44.1569C67.4728 43.9585 67.539 43.7317 67.539 43.4766V40.1669C67.539 40.0583 67.5744 39.9709 67.6453 39.9047C67.7162 39.8338 67.8036 39.7984 67.9075 39.7984C68.0162 39.7984 68.1036 39.8338 68.1697 39.9047C68.2359 39.9709 68.269 40.0583 68.269 40.1669V43.4766C68.269 43.8593 68.1721 44.1995 67.9784 44.4971C67.7894 44.7948 67.5248 45.0286 67.1846 45.1987C66.8445 45.3641 66.4547 45.4468 66.0153 45.4468Z" fill="#494558"/>
<path d="M72.7106 45.3334C72.6019 45.3334 72.5192 45.3003 72.4625 45.2342C72.4059 45.1633 72.3775 45.083 72.3775 44.9932C72.3775 44.8987 72.4059 44.8137 72.4625 44.7381L74.1138 42.5411L72.5547 40.3795C72.498 40.304 72.4744 40.2213 72.4838 40.1315C72.4933 40.0417 72.5263 39.9638 72.583 39.8976C72.6444 39.8315 72.7248 39.7984 72.824 39.7984C72.9468 39.7984 73.0342 39.8338 73.0862 39.9047L74.6099 42.0167L76.1974 39.9047C76.2636 39.8338 76.351 39.7984 76.4596 39.7984C76.5589 39.7984 76.6368 39.8291 76.6935 39.8905C76.7502 39.952 76.7809 40.0276 76.7856 40.1173C76.7904 40.2071 76.7644 40.2945 76.7077 40.3795L75.0918 42.534L76.6793 44.7381C76.736 44.8137 76.762 44.8987 76.7573 44.9932C76.7526 45.0877 76.7195 45.168 76.6581 45.2342C76.6014 45.3003 76.5211 45.3334 76.4171 45.3334C76.299 45.3334 76.2045 45.2885 76.1336 45.1987L74.5957 43.0655L72.9657 45.2271C72.8949 45.298 72.8098 45.3334 72.7106 45.3334Z" fill="#494558"/>
<path d="M85.891 45.8578C85.7587 45.8578 85.6571 45.8035 85.5863 45.6948C85.5201 45.5909 85.513 45.4751 85.565 45.3476L87.6982 40.011C87.7265 39.9449 87.7714 39.8929 87.8328 39.8551C87.8943 39.8173 87.9604 39.7984 88.0313 39.7984C88.1541 39.7984 88.251 39.8504 88.3218 39.9543C88.3974 40.0535 88.4093 40.1717 88.3573 40.3087L86.2241 45.6452C86.1957 45.7208 86.1485 45.7751 86.0823 45.8082C86.0209 45.8413 85.9571 45.8578 85.891 45.8578Z" fill="#494558"/>
<path d="M99.7867 45.4468C99.3331 45.4468 98.9315 45.3641 98.5819 45.1987C98.2323 45.0286 97.9582 44.7948 97.7598 44.4971C97.5661 44.1995 97.4692 43.8593 97.4692 43.4766V40.1669C97.4692 40.0583 97.5047 39.9709 97.5755 39.9047C97.6464 39.8338 97.7338 39.7984 97.8378 39.7984C97.9464 39.7984 98.0338 39.8338 98.1 39.9047C98.1708 39.9709 98.2063 40.0583 98.2063 40.1669V43.4766C98.2063 43.7317 98.2724 43.9585 98.4047 44.1569C98.5417 44.3507 98.7284 44.5042 98.9646 44.6176C99.2056 44.7263 99.4796 44.7806 99.7867 44.7806C100.084 44.7806 100.347 44.7263 100.573 44.6176C100.805 44.5042 100.984 44.3507 101.112 44.1569C101.244 43.9585 101.31 43.7317 101.31 43.4766V40.1669C101.31 40.0583 101.346 39.9709 101.417 39.9047C101.488 39.8338 101.575 39.7984 101.679 39.7984C101.788 39.7984 101.875 39.8338 101.941 39.9047C102.007 39.9709 102.04 40.0583 102.04 40.1669V43.4766C102.04 43.8593 101.944 44.1995 101.75 44.4971C101.561 44.7948 101.296 45.0286 100.956 45.1987C100.616 45.3641 100.226 45.4468 99.7867 45.4468Z" fill="#494558"/>
<path d="M106.872 45.3334C106.768 45.3334 106.68 45.298 106.61 45.2271C106.539 45.1562 106.503 45.0688 106.503 44.9649V40.1669C106.503 40.0583 106.539 39.9709 106.61 39.9047C106.68 39.8338 106.768 39.7984 106.872 39.7984C106.98 39.7984 107.068 39.8338 107.134 39.9047C107.205 39.9709 107.24 40.0583 107.24 40.1669V44.9649C107.24 45.0688 107.205 45.1562 107.134 45.2271C107.068 45.298 106.98 45.3334 106.872 45.3334Z" fill="#494558"/>
<path d="M117.195 45.3334C117.091 45.3334 117.004 45.298 116.933 45.2271C116.862 45.1562 116.827 45.0688 116.827 44.9649V40.1669C116.827 40.0583 116.862 39.9709 116.933 39.9047C117.004 39.8338 117.091 39.7984 117.195 39.7984H118.478C118.884 39.7984 119.253 39.8669 119.584 40.0039C119.919 40.1362 120.21 40.3276 120.455 40.578C120.701 40.8237 120.89 41.1142 121.022 41.4497C121.155 41.7851 121.221 42.156 121.221 42.5624C121.221 42.9687 121.155 43.3419 121.022 43.6821C120.89 44.0176 120.701 44.3105 120.455 44.5609C120.21 44.8066 119.919 44.9979 119.584 45.135C119.253 45.2672 118.884 45.3334 118.478 45.3334H117.195ZM117.564 44.6814H118.478C118.875 44.6814 119.225 44.5916 119.527 44.4121C119.834 44.2278 120.075 43.9774 120.25 43.6608C120.425 43.3396 120.512 42.9734 120.512 42.5624C120.512 42.1466 120.425 41.7804 120.25 41.4639C120.075 41.1473 119.834 40.8993 119.527 40.7197C119.225 40.5402 118.875 40.4504 118.478 40.4504H117.564V44.6814Z" fill="#494558"/>
<path d="M125.793 45.3334C125.689 45.3334 125.602 45.298 125.531 45.2271C125.46 45.1562 125.425 45.0688 125.425 44.9649V40.1669C125.425 40.0583 125.46 39.9709 125.531 39.9047C125.602 39.8338 125.689 39.7984 125.793 39.7984H128.997C129.105 39.7984 129.193 39.8315 129.259 39.8976C129.325 39.959 129.358 40.0417 129.358 40.1457C129.358 40.2449 129.325 40.3252 129.259 40.3866C129.193 40.4481 129.105 40.4788 128.997 40.4788H126.162V42.2009H128.196C128.305 42.2009 128.392 42.234 128.458 42.3001C128.524 42.3616 128.557 42.4419 128.557 42.5411C128.557 42.6403 128.524 42.723 128.458 42.7891C128.392 42.8506 128.305 42.8813 128.196 42.8813H126.162V44.653H128.997C129.105 44.653 129.193 44.6837 129.259 44.7452C129.325 44.8066 129.358 44.8869 129.358 44.9861C129.358 45.0901 129.325 45.1751 129.259 45.2413C129.193 45.3027 129.105 45.3334 128.997 45.3334H125.793Z" fill="#494558"/>
<path d="M135.192 45.4043C134.89 45.4043 134.602 45.357 134.328 45.2625C134.054 45.168 133.815 45.0357 133.612 44.8656C133.409 44.6956 133.26 44.4995 133.165 44.2774C133.118 44.1782 133.118 44.0861 133.165 44.001C133.217 43.916 133.302 43.8616 133.42 43.838C133.505 43.8191 133.588 43.8333 133.668 43.8805C133.753 43.9231 133.817 43.9892 133.86 44.079C133.916 44.1971 134.009 44.3058 134.136 44.405C134.268 44.5042 134.427 44.5845 134.611 44.6459C134.795 44.7074 134.989 44.7381 135.192 44.7381C135.419 44.7381 135.627 44.7026 135.816 44.6318C136.01 44.5609 136.165 44.4593 136.284 44.327C136.402 44.19 136.461 44.0223 136.461 43.8238C136.461 43.5734 136.362 43.349 136.163 43.1506C135.969 42.9521 135.648 42.8293 135.199 42.7821C134.613 42.7254 134.153 42.5529 133.817 42.2647C133.482 41.9765 133.314 41.6198 133.314 41.1946C133.314 40.8827 133.401 40.6181 133.576 40.4008C133.751 40.1835 133.987 40.0181 134.285 39.9047C134.587 39.7913 134.923 39.7346 135.291 39.7346C135.721 39.7346 136.073 39.822 136.347 39.9968C136.621 40.1717 136.848 40.4032 137.028 40.6914C137.094 40.7953 137.12 40.8945 137.106 40.989C137.096 41.0788 137.051 41.1497 136.971 41.2016C136.881 41.2583 136.784 41.2702 136.68 41.2371C136.576 41.204 136.499 41.1426 136.447 41.0528C136.328 40.8497 136.175 40.6914 135.986 40.578C135.802 40.4646 135.563 40.4055 135.27 40.4008C134.92 40.3961 134.628 40.4622 134.391 40.5992C134.155 40.7315 134.037 40.9371 134.037 41.2158C134.037 41.3576 134.072 41.4946 134.143 41.6269C134.219 41.7544 134.354 41.8655 134.547 41.96C134.746 42.0545 135.029 42.1206 135.398 42.1584C135.96 42.2151 136.397 42.3875 136.709 42.6757C137.025 42.9592 137.184 43.3348 137.184 43.8026C137.184 44.0719 137.127 44.3058 137.014 44.5042C136.905 44.7026 136.756 44.8704 136.567 45.0074C136.383 45.1397 136.17 45.2389 135.929 45.305C135.693 45.3712 135.447 45.4043 135.192 45.4043Z" fill="#494558"/>
<path d="M141.73 45.3334C141.626 45.3334 141.538 45.298 141.468 45.2271C141.397 45.1562 141.361 45.0688 141.361 44.9649V40.1669C141.361 40.0583 141.397 39.9709 141.468 39.9047C141.538 39.8338 141.626 39.7984 141.73 39.7984C141.838 39.7984 141.926 39.8338 141.992 39.9047C142.063 39.9709 142.098 40.0583 142.098 40.1669V44.9649C142.098 45.0688 142.063 45.1562 141.992 45.2271C141.926 45.298 141.838 45.3334 141.73 45.3334Z" fill="#494558"/>
<path d="M149.042 45.4043C148.659 45.4043 148.3 45.3334 147.964 45.1916C147.634 45.0452 147.343 44.8444 147.093 44.5892C146.847 44.3294 146.653 44.027 146.511 43.6821C146.374 43.3372 146.306 42.964 146.306 42.5624C146.306 42.1655 146.374 41.797 146.511 41.4568C146.653 41.1119 146.847 40.8119 147.093 40.5567C147.343 40.2969 147.634 40.0937 147.964 39.9472C148.295 39.8008 148.654 39.7275 149.042 39.7275C149.405 39.7275 149.717 39.7748 149.977 39.8693C150.242 39.9638 150.506 40.1197 150.771 40.337C150.827 40.3843 150.865 40.4292 150.884 40.4717C150.903 40.5142 150.913 40.5662 150.913 40.6276C150.913 40.7174 150.879 40.793 150.813 40.8544C150.752 40.9158 150.674 40.9489 150.579 40.9536C150.49 40.9583 150.405 40.9276 150.324 40.8615C150.15 40.7103 149.968 40.5945 149.779 40.5142C149.594 40.4339 149.349 40.3937 149.042 40.3937C148.763 40.3937 148.501 40.4504 148.255 40.5638C148.009 40.6772 147.792 40.8331 147.603 41.0316C147.419 41.23 147.275 41.4615 147.171 41.7261C147.067 41.9859 147.015 42.2647 147.015 42.5624C147.015 42.8647 147.067 43.1482 147.171 43.4128C147.275 43.6727 147.419 43.9018 147.603 44.1002C147.792 44.2987 148.009 44.4546 148.255 44.568C148.501 44.6767 148.763 44.731 149.042 44.731C149.249 44.731 149.448 44.7003 149.637 44.6389C149.826 44.5774 150.008 44.49 150.183 44.3766V43.1151H149.205C149.101 43.1151 149.013 43.0844 148.942 43.023C148.871 42.9616 148.836 42.8836 148.836 42.7891C148.836 42.6946 148.871 42.6167 148.942 42.5553C149.013 42.4938 149.101 42.4631 149.205 42.4631H150.53C150.639 42.4631 150.726 42.4986 150.792 42.5694C150.858 42.6356 150.891 42.723 150.891 42.8317V44.5255C150.891 44.5727 150.882 44.62 150.863 44.6672C150.849 44.7097 150.82 44.7499 150.778 44.7877C150.527 44.9956 150.256 45.1515 149.963 45.2554C149.67 45.3546 149.363 45.4043 149.042 45.4043Z" fill="#494558"/>
<path d="M155.479 45.3334C155.375 45.3334 155.288 45.298 155.217 45.2271C155.151 45.1562 155.118 45.0688 155.118 44.9649V40.1669C155.118 40.0583 155.151 39.9709 155.217 39.9047C155.288 39.8338 155.375 39.7984 155.479 39.7984C155.592 39.7984 155.687 39.8433 155.763 39.9331L158.852 44.0435V40.1669C158.852 40.0583 158.888 39.9709 158.959 39.9047C159.03 39.8338 159.117 39.7984 159.221 39.7984C159.33 39.7984 159.417 39.8338 159.483 39.9047C159.549 39.9709 159.582 40.0583 159.582 40.1669V44.9649C159.582 45.0688 159.549 45.1562 159.483 45.2271C159.417 45.298 159.33 45.3334 159.221 45.3334C159.174 45.3334 159.122 45.3239 159.065 45.305C159.013 45.2814 158.971 45.2483 158.938 45.2058L155.848 41.0953V44.9649C155.848 45.0688 155.812 45.1562 155.741 45.2271C155.675 45.298 155.588 45.3334 155.479 45.3334Z" fill="#494558"/>
<path d="M164.416 45.3334C164.312 45.3334 164.225 45.298 164.154 45.2271C164.083 45.1562 164.048 45.0688 164.048 44.9649V40.1669C164.048 40.0583 164.083 39.9709 164.154 39.9047C164.225 39.8338 164.312 39.7984 164.416 39.7984H167.62C167.728 39.7984 167.816 39.8315 167.882 39.8976C167.948 39.959 167.981 40.0417 167.981 40.1457C167.981 40.2449 167.948 40.3252 167.882 40.3866C167.816 40.4481 167.728 40.4788 167.62 40.4788H164.785V42.2009H166.819C166.928 42.2009 167.015 42.234 167.081 42.3001C167.147 42.3616 167.18 42.4419 167.18 42.5411C167.18 42.6403 167.147 42.723 167.081 42.7891C167.015 42.8506 166.928 42.8813 166.819 42.8813H164.785V44.653H167.62C167.728 44.653 167.816 44.6837 167.882 44.7452C167.948 44.8066 167.981 44.8869 167.981 44.9861C167.981 45.0901 167.948 45.1751 167.882 45.2413C167.816 45.3027 167.728 45.3334 167.62 45.3334H164.416Z" fill="#494558"/>
<path d="M172.426 45.3334C172.322 45.3334 172.235 45.298 172.164 45.2271C172.093 45.1562 172.058 45.0688 172.058 44.9649V40.1669C172.058 40.0583 172.093 39.9709 172.164 39.9047C172.235 39.8338 172.322 39.7984 172.426 39.7984H173.702C174.056 39.7984 174.37 39.874 174.644 40.0252C174.918 40.1717 175.131 40.3748 175.282 40.6347C175.438 40.8945 175.516 41.1969 175.516 41.5418C175.516 41.882 175.431 42.182 175.261 42.4419C175.091 42.697 174.859 42.8907 174.566 43.023L175.651 44.7664C175.736 44.9034 175.748 45.0334 175.686 45.1562C175.625 45.2743 175.518 45.3334 175.367 45.3334C175.23 45.3334 175.124 45.2743 175.048 45.1562L173.829 43.2002C173.787 43.2002 173.744 43.2002 173.702 43.2002H172.795V44.9649C172.795 45.0688 172.759 45.1562 172.688 45.2271C172.622 45.298 172.535 45.3334 172.426 45.3334ZM172.795 42.5198H173.702C174.023 42.5198 174.288 42.4301 174.496 42.2505C174.703 42.0663 174.807 41.83 174.807 41.5418C174.807 41.23 174.703 40.9749 174.496 40.7764C174.288 40.578 174.023 40.4788 173.702 40.4788H172.795V42.5198Z" fill="#494558"/>
<path fill-rule="evenodd" clip-rule="evenodd" d="M27.2581 3.96482C14.3936 3.96482 3.96481 14.3936 3.96481 27.2581C3.96481 40.1226 14.3936 50.5514 27.2581 50.5514C32.0231 50.5514 36.4485 49.1227 40.1365 46.6708C41.0483 46.0646 42.2788 46.3123 42.8849 47.224C43.4911 48.1358 43.2434 49.3663 42.3316 49.9725C38.0134 52.8434 32.8281 54.5162 27.2581 54.5162C12.2039 54.5162 0 42.3123 0 27.2581C0 12.2039 12.2039 0 27.2581 0C31.5921 0 35.6952 1.01293 39.3383 2.81678C40.3195 3.30259 40.7211 4.49181 40.2353 5.47298C39.7495 6.45415 38.5602 6.85572 37.5791 6.36991C34.4706 4.83082 30.9683 3.96482 27.2581 3.96482Z" fill="#25265E"/>
<path fill-rule="evenodd" clip-rule="evenodd" d="M27.1036 25.1765C27.8007 25.1746 28.4476 25.5389 28.8073 26.1361L36.6877 39.22C37.2479 40.1502 36.9555 41.358 36.0319 41.929C29.8532 45.7486 23.6075 45.034 18.3296 41.9552C17.8729 41.6888 17.5416 41.2511 17.4092 40.7392C17.2768 40.2274 17.3544 39.6839 17.6246 39.2295L25.4052 26.1457C25.7616 25.5465 26.4064 25.1785 27.1036 25.1765Z" fill="#25265E"/>
</svg>
