<?xml version="1.0" encoding="utf-8"?>
<!-- Generator: Adobe Illustrator 22.0.1, SVG Export Plug-In . SVG Version: 6.00 Build 0)  -->
<svg version="1.1" id="Capa_1" xmlns="http://www.w3.org/2000/svg" xmlns:xlink="http://www.w3.org/1999/xlink" x="0px" y="0px"
	 viewBox="0 0 232 72" style="enable-background:new 0 0 232 72;" xml:space="preserve">
<style type="text/css">
	.st0{clip-path:url(#SVGID_2_);}
	.st1{clip-path:url(#SVGID_4_);}
	.st2{fill:url(#SVGID_5_);}
	.st3{clip-path:url(#SVGID_7_);}
</style>
<g>
	<defs>
		<rect id="SVGID_1_" x="-14" y="-6" width="258" height="86"/>
	</defs>
	<clipPath id="SVGID_2_">
		<use xlink:href="#SVGID_1_"  style="overflow:visible;"/>
	</clipPath>
	<g class="st0">
		<g>
			<g>
				<g>
					<defs>
						<path id="SVGID_3_" d="M26,14.3c-4.8,0-9.6,1.8-13.2,5.5l0,0c-7.3,7.3-7.3,19.2,0,26.5l0,0l4,4c5,5,13.2,5,18.2,0l0,0
							c4.5-4.5,5-11.5,1.4-16.5l0,0c-1.5-2.1-3.8-4-5.6-5.9l0,0l0,0c-2.8-2.6-7.1-2.5-9.8,0.2l0,0c-2.7,2.7-2.7,7.2,0,10l0,0l9,9
							c1.2,1.2,2.9-0.6,1.7-1.8l0,0L27.6,41c-1.8-1.8-1.8-4.7,0-6.5l0,0l0.9-0.9l-1.7-1.7l-0.9,0.9c-1.3,1.3-1.9,2.9-2,4.5l0,0l-1-1
							c-1.8-1.8-1.8-4.7,0-6.5l0,0c1.8-1.8,4.7-1.8,6.5,0l0,0l4,4c4.1,4.1,4.1,10.7,0,14.8l0,0c-4.1,4.1-10.7,4.1-14.8,0l0,0l-4-4
							c-6.3-6.3-6.3-16.7,0-23l0,0c6.3-6.3,16.7-6.3,23,0l0,0c1.4,1.4,3.1-0.4,1.7-1.7l0,0C35.6,16.1,30.8,14.3,26,14.3L26,14.3
							C26,14.3,26,14.3,26,14.3z M17,23.9c-4.2,4.2-4.9,10.7-2,15.6l0,0c0.7,1.2,1.1,1.7,2,2.6l0,0l4.1,4.1c1.2,1.2,2.9-0.5,1.7-1.7
							l0,0l-4.1-4.1c-4.1-4.1-4.1-10.7,0-14.8l0,0c4.1-4.1,10.7-4.1,14.8,0l0,0l3.9,3.9c6.3,6.3,6.3,16.7,0,23l0,0
							c-6.3,6.3-16.7,6.3-23,0l0,0c-1.4-1.4-3.1,0.4-1.7,1.7l0,0c7.3,7.3,19.2,7.3,26.5,0l0,0c7.3-7.3,7.3-19.2,0-26.5l0,0l-3.9-3.9
							l-0.1-0.1c-2.5-2.5-5.8-3.8-9.1-3.8l0,0C22.8,20.1,19.5,21.4,17,23.9"/>
					</defs>
					<clipPath id="SVGID_4_">
						<use xlink:href="#SVGID_3_"  style="overflow:visible;"/>
					</clipPath>
					<g class="st1">
						<g>
							<g>
								<g>
									
										<linearGradient id="SVGID_5_" gradientUnits="userSpaceOnUse" x1="-273.2866" y1="348.6608" x2="-273.7621" y2="347.9413" gradientTransform="matrix(43.303 0 0 52.834 11869.6797 -18366.4785)">
										<stop  offset="0" style="stop-color:#FE4910"/>
										<stop  offset="0.9992" style="stop-color:#FDB819"/>
										<stop  offset="1" style="stop-color:#FDB819"/>
									</linearGradient>
									<path class="st2" d="M26,14.3c-4.8,0-9.6,1.8-13.2,5.5l0,0c-7.3,7.3-7.3,19.2,0,26.5l0,0l4,4c5,5,13.2,5,18.2,0l0,0
										c4.5-4.5,5-11.5,1.4-16.5l0,0c-1.5-2.1-3.8-4-5.6-5.9l0,0l0,0c-2.8-2.6-7.1-2.5-9.8,0.2l0,0c-2.7,2.7-2.7,7.2,0,10l0,0l9,9
										c1.2,1.2,2.9-0.6,1.7-1.8l0,0L27.6,41c-1.8-1.8-1.8-4.7,0-6.5l0,0l0.9-0.9l-1.7-1.7l-0.9,0.9c-1.3,1.3-1.9,2.9-2,4.5l0,0
										l-1-1c-1.8-1.8-1.8-4.7,0-6.5l0,0c1.8-1.8,4.7-1.8,6.5,0l0,0l4,4c4.1,4.1,4.1,10.7,0,14.8l0,0c-4.1,4.1-10.7,4.1-14.8,0
										l0,0l-4-4c-6.3-6.3-6.3-16.7,0-23l0,0c6.3-6.3,16.7-6.3,23,0l0,0c1.4,1.4,3.1-0.4,1.7-1.7l0,0C35.6,16.1,30.8,14.3,26,14.3
										L26,14.3C26,14.3,26,14.3,26,14.3z M17,23.9c-4.2,4.2-4.9,10.7-2,15.6l0,0c0.7,1.2,1.1,1.7,2,2.6l0,0l4.1,4.1
										c1.2,1.2,2.9-0.5,1.7-1.7l0,0l-4.1-4.1c-4.1-4.1-4.1-10.7,0-14.8l0,0c4.1-4.1,10.7-4.1,14.8,0l0,0l3.9,3.9
										c6.3,6.3,6.3,16.7,0,23l0,0c-6.3,6.3-16.7,6.3-23,0l0,0c-1.4-1.4-3.1,0.4-1.7,1.7l0,0c7.3,7.3,19.2,7.3,26.5,0l0,0
										c7.3-7.3,7.3-19.2,0-26.5l0,0l-3.9-3.9l-0.1-0.1c-2.5-2.5-5.8-3.8-9.1-3.8l0,0C22.8,20.1,19.5,21.4,17,23.9"/>
								</g>
							</g>
						</g>
					</g>
				</g>
				<g>
					<g>
						<defs>
							<rect id="SVGID_6_" x="-49.6" y="-74.7" width="330.3" height="222.4"/>
						</defs>
						<clipPath id="SVGID_7_">
							<use xlink:href="#SVGID_6_"  style="overflow:visible;"/>
						</clipPath>
						<g class="st3">
							<g>
								<path d="M68.4,38.4h-9.5v-3.2h9.5V38.4z M69.1,30.9H57.6v15.2h-2.9V27.7h14.4V30.9z M92.8,36.7c0,2.7-0.8,5-2.4,6.7
									c-1.6,1.8-3.6,2.7-6,2.7h-4.7c-2.4,0-4.4-0.9-6-2.7c-1.6-1.8-2.4-4-2.4-6.7c0-2.7,0.8-4.9,2.4-6.5c1.6-1.7,3.6-2.5,6.1-2.5
									h4.7c2.5,0,4.5,0.8,6.1,2.5C92,31.8,92.8,34,92.8,36.7 M89.9,37c0-1.8-0.5-3.2-1.6-4.4c-1-1.1-2.4-1.7-4-1.7h-4.7
									c-1.6,0-2.9,0.6-4,1.7c-1,1.1-1.6,2.6-1.6,4.4c0,1.8,0.5,3.2,1.6,4.3c1,1.1,2.4,1.6,4,1.6h4.7c1.6,0,2.9-0.5,4-1.6
									C89.4,40.1,89.9,38.7,89.9,37z M114,37.8c0,3-0.8,5.1-2.4,6.5c-1.4,1.2-3.5,1.8-6.3,1.8h-1c-2.8,0-4.9-0.6-6.3-1.8
									c-1.6-1.4-2.4-3.5-2.4-6.5V27.7h2.9v10.1c0,2.2,0.7,3.7,2.1,4.4c0.9,0.4,2.5,0.7,4.7,0.7c1.9,0,3.3-0.3,4.2-0.9
									c1.1-0.8,1.7-2.2,1.7-4.1V27.7h2.9V37.8z M134.2,44.5c0,1.2-0.4,1.8-1.1,1.8c-0.5,0-1.1-0.4-1.8-1.1l-10.7-11.9v12.8h-2.9
									V29.3c0-0.4,0.1-0.8,0.3-1.1s0.5-0.5,0.9-0.5c0.5,0,1.1,0.3,1.7,0.9l10.7,11.8V27.7h2.9V44.5z M156.6,36.7
									c0,2.7-0.8,5-2.4,6.7c-1.6,1.8-3.6,2.7-6,2.7h-9.4V27.7h9.4c2.5,0,4.5,0.8,6.1,2.5C155.8,31.8,156.6,34,156.6,36.7z
									 M153.7,37c0-1.8-0.5-3.2-1.6-4.4c-1-1.1-2.4-1.7-4-1.7h-6.5v12h6.5c1.6,0,2.9-0.5,4-1.6C153.2,40.1,153.7,38.7,153.7,37z
									 M180.5,46.1l-3.7,0l-2.8-5.2H166l1.8-3.2h4.4l-2.9-5.3l-7.5,13.6H158l9.1-16.6c0.2-0.4,0.5-0.8,1-1.2
									c0.5-0.4,0.9-0.6,1.3-0.6c0.4,0,0.9,0.2,1.3,0.6c0.4,0.3,0.7,0.7,1,1.2L180.5,46.1z M201.5,46.1h-4.3l-4.7-5.2h-6.3v-3.2
									h7.8c1.1,0,2-0.3,2.7-0.8c0.8-0.6,1.2-1.5,1.2-2.6c0-2.3-1.3-3.5-4-3.5h-9.5v15.2h-2.9V27.7h12c2.2,0,3.9,0.5,5.2,1.5
									c1.5,1.2,2.3,2.9,2.3,5.2c0,1.5-0.4,2.9-1.3,4c-0.8,1-1.9,1.8-3.3,2.2L201.5,46.1z M222.6,36.7c0,2.7-0.8,5-2.4,6.7
									c-1.6,1.8-3.6,2.7-6,2.7h-9.4V27.7h9.4c2.5,0,4.5,0.8,6.1,2.5C221.9,31.8,222.6,34,222.6,36.7z M219.7,37
									c0-1.8-0.5-3.2-1.6-4.4c-1-1.1-2.4-1.7-4-1.7h-6.5v12h6.5c1.6,0,2.9-0.5,4-1.6C219.2,40.1,219.7,38.7,219.7,37z"/>
							</g>
						</g>
					</g>
				</g>
			</g>
		</g>
	</g>
</g>
</svg>
